<svg width="181" height="47" viewBox="0 0 181 47" fill="none" xmlns="http://www.w3.org/2000/svg">
<path d="M0.0957031 7.67188C0.0957031 7.22656 0.0839844 6.74609 0.0605469 6.23047C0.0371094 5.71484 0.0722656 5.23437 0.166016 4.78906C0.283203 4.34375 0.470703 3.98047 0.728516 3.69922C1.00977 3.39453 1.45508 3.24219 2.06445 3.24219C2.50977 3.85156 2.79102 4.61328 2.9082 5.52734C3.04883 6.41797 3.14258 7.36719 3.18945 8.375C3.23633 9.35938 3.2832 10.3438 3.33008 11.3281C3.40039 12.3125 3.59961 13.1797 3.92773 13.9297C3.95117 14.0234 4.05664 14.1641 4.24414 14.3516C4.45508 14.5156 4.5957 14.6211 4.66602 14.668C5.36914 14.0586 6.00195 13.4258 6.56445 12.7695C7.15039 12.1133 7.72461 11.4805 8.28711 10.8711C8.84961 10.2383 9.41211 9.64062 9.97461 9.07812C10.5371 8.51562 11.1465 8.02344 11.8027 7.60156C12.4824 7.17969 13.2324 6.85156 14.0527 6.61719C14.8965 6.35937 15.8457 6.23047 16.9004 6.23047C16.9004 6.79297 16.7012 7.35547 16.3027 7.91797C15.9043 8.48047 15.4004 9.05469 14.791 9.64062C14.1816 10.2031 13.5137 10.7891 12.7871 11.3984C12.0605 11.9844 11.3574 12.5938 10.6777 13.2266C9.99805 13.8359 9.38867 14.457 8.84961 15.0898C8.31055 15.6992 7.92383 16.3203 7.68945 16.9531C8.08789 17.0469 8.74414 17.2812 9.6582 17.6562C10.5957 18.0078 11.6504 18.4531 12.8223 18.9922C14.0176 19.5078 15.248 20.0703 16.5137 20.6797C17.7793 21.2891 18.9395 21.8984 19.9941 22.5078C21.0488 23.0938 21.9043 23.6562 22.5605 24.1953C23.2402 24.7109 23.5801 25.1328 23.5801 25.4609C23.5801 25.5312 23.5801 25.6836 23.5801 25.918C23.5801 26.1289 23.5566 26.3516 23.5098 26.5859C23.4863 26.8203 23.416 27.0312 23.2988 27.2188C23.1816 27.3828 22.9941 27.4648 22.7363 27.4648C21.752 27.4414 20.8262 27.2656 19.959 26.9375C19.0918 26.5859 18.248 26.1641 17.4277 25.6719C16.6074 25.1562 15.7871 24.6289 14.9668 24.0898C14.1699 23.5273 13.3496 23 12.5059 22.5078C11.6621 21.9922 10.7832 21.582 9.86914 21.2773C8.97852 20.9492 8.00586 20.7617 6.95117 20.7148C6.59961 21.2773 6.44727 21.8281 6.49414 22.3672C6.54102 22.8828 6.69336 23.4102 6.95117 23.9492C7.23242 24.4648 7.56055 25.0039 7.93555 25.5664C8.31055 26.1055 8.63867 26.6797 8.91992 27.2891C9.20117 27.875 9.38867 28.4961 9.48242 29.1523C9.57617 29.8086 9.4707 30.5 9.16602 31.2266C9.11914 31.2969 9.02539 31.3789 8.88477 31.4727C8.76758 31.543 8.62695 31.625 8.46289 31.7188C8.32227 31.8125 8.16992 31.8828 8.00586 31.9297C7.8418 31.9766 7.73633 32 7.68945 32C7.38477 32 7.04492 31.707 6.66992 31.1211C6.31836 30.5352 5.93164 29.7383 5.50977 28.7305C5.11133 27.7227 4.68945 26.5742 4.24414 25.2852C3.82227 23.9727 3.40039 22.625 2.97852 21.2422C2.58008 19.8359 2.20508 18.4297 1.85352 17.0234C1.52539 15.5938 1.2207 14.2695 0.939453 13.0508C0.681641 11.8086 0.470703 10.7188 0.306641 9.78125C0.166016 8.84375 0.0957031 8.14062 0.0957031 7.67188ZM24.916 17.6562C24.916 17.5156 24.916 17.2695 24.916 16.918C24.9395 16.543 24.9512 16.1562 24.9512 15.7578C24.9512 15.3594 24.9512 14.9961 24.9512 14.668C24.9746 14.3164 24.9863 14.0703 24.9863 13.9297C25.1504 13.6484 25.3379 13.3789 25.5488 13.1211C25.7832 12.8398 26.0176 12.6523 26.252 12.5586C26.5098 12.4414 26.7793 12.418 27.0605 12.4883C27.3652 12.5586 27.6699 12.793 27.9746 13.1914V13.4727V13.9297C27.9512 14.0469 27.9043 14.3281 27.834 14.7734C27.7637 15.1953 27.6816 15.6641 27.5879 16.1797C27.4941 16.6953 27.4004 17.1758 27.3066 17.6211C27.2363 18.043 27.2012 18.3125 27.2012 18.4297C27.2012 18.875 27.248 19.4375 27.3418 20.1172C27.4355 20.7734 27.5645 21.4648 27.7285 22.1914C27.916 22.918 28.1387 23.6445 28.3965 24.3711C28.6777 25.0977 29.0059 25.7539 29.3809 26.3398C29.7559 26.9023 30.166 27.3711 30.6113 27.7461C31.0801 28.1211 31.6191 28.3086 32.2285 28.3086C32.9785 28.3086 33.6348 28.1094 34.1973 27.7109C34.7832 27.3125 35.2871 26.7969 35.709 26.1641C36.1309 25.5312 36.4707 24.8164 36.7285 24.0195C37.0098 23.2227 37.2324 22.4258 37.3965 21.6289C37.5605 20.8086 37.6777 20.0234 37.748 19.2734C37.8184 18.5234 37.8535 17.8672 37.8535 17.3047C37.8535 16.7422 37.8066 16.2148 37.7129 15.7227C37.6426 15.207 37.5488 14.7031 37.4316 14.2109C37.3145 13.7188 37.209 13.2383 37.1152 12.7695C37.0449 12.2773 37.0098 11.7852 37.0098 11.293C37.0098 10.8477 37.1621 10.5312 37.4668 10.3438C37.7949 10.1562 38.1582 10.0625 38.5566 10.0625C39.0488 10.0625 39.4473 10.2148 39.752 10.5195C40.0566 10.8008 40.291 11.1641 40.4551 11.6094C40.6426 12.0547 40.7598 12.5703 40.8066 13.1562C40.877 13.7188 40.9121 14.2812 40.9121 14.8438C40.9121 15.4062 40.9004 15.9453 40.877 16.4609C40.8535 16.9531 40.8418 17.3516 40.8418 17.6562C40.8418 18.4531 40.7832 19.3555 40.666 20.3633C40.5488 21.3711 40.3379 22.4141 40.0332 23.4922C39.752 24.5469 39.3887 25.5898 38.9434 26.6211C38.5215 27.6523 37.9941 28.5781 37.3613 29.3984C36.752 30.1953 36.0371 30.8398 35.2168 31.332C34.4199 31.8242 33.5176 32.0703 32.5098 32.0703C31.4551 32.0703 30.5293 31.8242 29.7324 31.332C28.9355 30.8164 28.2559 30.1484 27.6934 29.3281C27.1543 28.4844 26.6973 27.5352 26.3223 26.4805C25.9473 25.4258 25.6543 24.3711 25.4434 23.3164C25.2559 22.2617 25.1152 21.2422 25.0215 20.2578C24.9512 19.25 24.916 18.3828 24.916 17.6562ZM48.2949 30.4883C47.5684 28.3789 46.877 26.4102 46.2207 24.582C45.5879 22.7305 45.0254 20.9258 44.5332 19.168C44.0645 17.3867 43.6895 15.582 43.4082 13.7539C43.127 11.9258 42.9863 9.96875 42.9863 7.88281C42.9863 7.71875 42.9863 7.42578 42.9863 7.00391C43.0098 6.55859 43.0215 6.10156 43.0215 5.63281C43.0215 5.16406 43.0215 4.71875 43.0215 4.29688C43.0449 3.85156 43.0566 3.54687 43.0566 3.38281C43.2676 2.91406 43.6309 2.48047 44.1465 2.08203C44.6855 1.68359 45.2246 1.48438 45.7637 1.48438C45.7637 3.21875 45.7871 5.07031 45.834 7.03906C45.8809 8.98438 46.0215 10.9297 46.2559 12.875C46.5137 14.8203 46.9121 16.7305 47.4512 18.6055C48.0137 20.457 48.7988 22.1562 49.8066 23.7031C49.8301 23.1406 49.8535 22.5195 49.877 21.8398C49.9004 21.1602 49.959 20.4805 50.0527 19.8008C50.1699 19.1211 50.3457 18.4648 50.5801 17.832C50.8145 17.1992 51.1543 16.6367 51.5996 16.1445C52.0684 15.6523 52.666 15.2656 53.3926 14.9844C54.1426 14.7031 55.0801 14.5742 56.2051 14.5977C57.2129 14.5977 58.1152 14.7852 58.9121 15.1602C59.7324 15.5352 60.4121 16.0508 60.9512 16.707C61.5137 17.3398 61.9355 18.0898 62.2168 18.957C62.5215 19.8008 62.6738 20.7031 62.6738 21.6641C62.6738 22.9531 62.3574 24.2188 61.7246 25.4609C61.0918 26.7031 60.248 27.8164 59.1934 28.8008C58.1621 29.7852 57.002 30.582 55.7129 31.1914C54.4238 31.7773 53.1113 32.0703 51.7754 32.0703C51.0957 32.0703 50.4395 31.9531 49.8066 31.7188C49.1738 31.4609 48.6699 31.0508 48.2949 30.4883ZM56.627 17.6562C56.1582 17.9141 55.666 18.2188 55.1504 18.5703C54.6348 18.9219 54.1543 19.4727 53.709 20.2227C53.2871 20.9492 52.9238 21.9453 52.6191 23.2109C52.3145 24.4766 52.127 26.1523 52.0566 28.2383C52.1035 28.2383 52.2207 28.25 52.4082 28.2734C52.6191 28.2969 52.7598 28.3086 52.8301 28.3086C53.4629 28.3086 54.1777 28.1094 54.9746 27.7109C55.7949 27.3125 56.5801 26.8203 57.3301 26.2344C58.1035 25.6484 58.7715 25.0039 59.334 24.3008C59.8965 23.5742 60.2363 22.8828 60.3535 22.2266C60.4238 21.8281 60.3418 21.3711 60.1074 20.8555C59.873 20.3398 59.5566 19.8477 59.1582 19.3789C58.7832 18.8867 58.3613 18.4766 57.8926 18.1484C57.4473 17.8203 57.0254 17.6562 56.627 17.6562ZM66.2949 18.8164C66.2949 18.6758 66.2949 18.4531 66.2949 18.1484C66.3184 17.8203 66.3301 17.4805 66.3301 17.1289C66.3535 16.7773 66.3652 16.4375 66.3652 16.1094C66.3887 15.7812 66.4004 15.5469 66.4004 15.4062C66.6582 15.0312 66.9863 14.7266 67.3848 14.4922C67.8066 14.2578 68.2285 14.0703 68.6504 13.9297C68.7207 15.1953 68.9199 16.543 69.248 17.9727C69.5762 19.4023 69.9277 20.8438 70.3027 22.2969C70.6777 23.7266 71.0059 25.1445 71.2871 26.5508C71.5918 27.957 71.7441 29.2695 71.7441 30.4883C71.7441 31.543 71.2051 32.0703 70.127 32.0703C69.4707 32.0703 68.9199 31.8008 68.4746 31.2617C68.0293 30.7227 67.666 30.043 67.3848 29.2227C67.127 28.3789 66.916 27.4531 66.752 26.4453C66.5879 25.4141 66.4707 24.4062 66.4004 23.4219C66.3535 22.4375 66.3184 21.5352 66.2949 20.7148C66.2949 19.8945 66.2949 19.2617 66.2949 18.8164ZM66.7871 5.63281C67.2324 5.82031 67.6074 6.125 67.9121 6.54688C68.2168 6.96875 68.3457 7.35547 68.2988 7.70703C68.2754 8.03516 68.0176 8.26953 67.5254 8.41016C67.0332 8.52734 66.2129 8.38672 65.0645 7.98828C65.0645 7.35547 65.1816 6.80469 65.416 6.33594C65.6738 5.86719 66.1309 5.63281 66.7871 5.63281ZM73.959 12.1016C73.959 11.4219 73.9121 10.7656 73.8184 10.1328C73.7246 9.47656 73.7012 8.90234 73.748 8.41016C73.7949 7.89453 73.9707 7.48438 74.2754 7.17969C74.6035 6.875 75.1895 6.72266 76.0332 6.72266C76.291 7.26172 76.5371 8.08203 76.7715 9.18359C77.0293 10.2852 77.2754 11.5508 77.5098 12.9805C77.7441 14.4102 77.9668 15.9688 78.1777 17.6562C78.3887 19.3203 78.5762 20.9961 78.7402 22.6836C78.9277 24.3711 79.0801 26.0352 79.1973 27.6758C79.3379 29.293 79.4434 30.7695 79.5137 32.1055C78.7402 32.6211 78.1191 32.6562 77.6504 32.2109C77.1816 31.7656 76.7949 31.0156 76.4902 29.9609C76.1855 28.8828 75.9512 27.582 75.7871 26.0586C75.623 24.5117 75.459 22.918 75.2949 21.2773C75.1543 19.6133 74.9785 17.9844 74.7676 16.3906C74.5566 14.7734 74.2871 13.3438 73.959 12.1016ZM96.459 27.4648C95.5684 28.0742 94.7949 28.625 94.1387 29.1172C93.5059 29.5859 92.8848 29.9844 92.2754 30.3125C91.666 30.6406 91.0098 30.8867 90.3066 31.0508C89.627 31.2148 88.7832 31.2969 87.7754 31.2969C85.5957 31.2969 83.9785 30.7227 82.9238 29.5742C81.8691 28.4023 81.3418 26.668 81.3418 24.3711C81.3418 23.4805 81.459 22.5547 81.6934 21.5938C81.9277 20.6328 82.2676 19.6836 82.7129 18.7461C83.1816 17.7852 83.7324 16.8828 84.3652 16.0391C84.998 15.1719 85.7129 14.4102 86.5098 13.7539C87.3066 13.0977 88.1504 12.582 89.041 12.207C89.9551 11.8086 90.916 11.6094 91.9238 11.6094C93.6113 11.7734 94.9355 12.1953 95.8965 12.875C96.8574 13.5312 97.584 14.3867 98.0762 15.4414C98.5684 16.4727 98.9082 17.6328 99.0957 18.9219C99.2832 20.1875 99.4238 21.5 99.5176 22.8594C99.6348 24.2188 99.7754 25.5781 99.9395 26.9375C100.104 28.2969 100.443 29.5508 100.959 30.6992C100.654 31.4727 100.361 32.0117 100.08 32.3164C99.8223 32.6445 99.5293 32.7031 99.2012 32.4922C98.873 32.2812 98.4863 31.7656 98.041 30.9453C97.6191 30.125 97.0918 28.9648 96.459 27.4648ZM84.3301 24.4414C84.3301 25.7773 84.5762 26.7617 85.0684 27.3945C85.584 28.0039 86.4863 28.3086 87.7754 28.3086C88.7363 28.3086 89.6504 28.1445 90.5176 27.8164C91.4082 27.4648 92.1816 26.9961 92.8379 26.4102C93.4941 25.8008 94.0215 25.0742 94.4199 24.2305C94.8184 23.3867 95.0176 22.4492 95.0176 21.418C95.0176 20.9961 95.0293 20.4102 95.0527 19.6602C95.0762 18.8867 95.0293 18.125 94.9121 17.375C94.7949 16.625 94.5723 15.9805 94.2441 15.4414C93.916 14.8789 93.4238 14.5977 92.7676 14.5977C91.5488 14.5977 90.4238 14.9141 89.3926 15.5469C88.3613 16.1562 87.4707 16.9414 86.7207 17.9023C85.9707 18.8633 85.3848 19.9297 84.9629 21.1016C84.541 22.25 84.3301 23.3633 84.3301 24.4414ZM102.576 13.8242C102.576 13.6133 102.576 13.4023 102.576 13.1914C102.6 12.957 102.646 12.7461 102.717 12.5586C102.811 12.3477 102.928 12.1953 103.068 12.1016C103.232 11.9844 103.467 11.9258 103.771 11.9258C103.795 11.9258 103.818 11.9258 103.842 11.9258C103.889 11.9258 103.936 11.9258 103.982 11.9258C104.053 11.9492 104.111 11.9609 104.158 11.9609C104.604 12.5703 104.99 13.3555 105.318 14.3164C105.646 15.2539 105.963 16.2617 106.268 17.3398C106.572 18.3945 106.9 19.4727 107.252 20.5742C107.604 21.6523 108.061 22.625 108.623 23.4922C109.186 24.3594 109.877 25.0508 110.697 25.5664C111.518 26.082 112.537 26.3047 113.756 26.2344C114.295 26.2344 114.646 25.9414 114.811 25.3555C114.975 24.7695 115.057 24.0195 115.057 23.1055C115.08 22.1914 115.057 21.1836 114.986 20.082C114.939 18.9805 114.939 17.9375 114.986 16.9531C115.057 15.9453 115.232 15.0664 115.514 14.3164C115.818 13.5664 116.334 13.0625 117.061 12.8047C117.365 13.4141 117.611 14.375 117.799 15.6875C118.01 16.9766 118.162 18.4766 118.256 20.1875C118.35 21.875 118.396 23.7148 118.396 25.707C118.396 27.6758 118.35 29.6445 118.256 31.6133C118.162 33.5586 118.021 35.4336 117.834 37.2383C117.646 39.043 117.436 40.625 117.201 41.9844C116.967 43.3438 116.686 44.4102 116.357 45.1836C116.053 45.9805 115.725 46.3203 115.373 46.2031C114.881 45.7344 114.494 45.125 114.213 44.375C113.955 43.625 113.768 42.793 113.65 41.8789C113.557 40.9648 113.521 39.9922 113.545 38.9609C113.568 37.9531 113.604 36.9336 113.65 35.9023C113.721 34.8711 113.791 33.8633 113.861 32.8789C113.955 31.8945 114.002 30.9922 114.002 30.1719C113.158 30.2422 112.291 30.1133 111.4 29.7852C110.533 29.457 109.678 28.9531 108.834 28.2734C107.99 27.5703 107.182 26.7266 106.408 25.7422C105.658 24.7578 104.99 23.6445 104.404 22.4023C103.842 21.1602 103.396 19.8242 103.068 18.3945C102.74 16.9414 102.576 15.418 102.576 13.8242Z" fill="black"/>
<path d="M120.998 5.77344C121.279 4.34375 121.795 3.21875 122.545 2.39844C123.295 1.55469 124.15 0.980469 125.111 0.675781C126.096 0.371094 127.139 0.300781 128.24 0.464844C129.365 0.605469 130.42 0.945312 131.404 1.48438C132.412 2.02344 133.291 2.72656 134.041 3.59375C134.791 4.4375 135.318 5.41016 135.623 6.51172C135.928 7.58984 135.928 8.76172 135.623 10.0273C135.318 11.293 134.627 12.5938 133.549 13.9297C134.393 14.2344 135.178 14.5391 135.904 14.8438C136.631 15.1484 137.24 15.5234 137.732 15.9688C138.248 16.4141 138.646 16.9531 138.928 17.5859C139.209 18.2188 139.35 19.0039 139.35 19.9414C139.35 20.7148 139.209 21.5352 138.928 22.4023C138.646 23.2695 138.248 24.125 137.732 24.9688C137.24 25.8125 136.654 26.6211 135.975 27.3945C135.318 28.1445 134.604 28.8125 133.83 29.3984C133.057 29.9844 132.26 30.4531 131.439 30.8047C130.643 31.1328 129.857 31.2969 129.084 31.2969C128.568 31.2969 128.064 30.9688 127.572 30.3125C127.08 29.6562 126.6 28.7891 126.131 27.7109C125.662 26.6328 125.205 25.3906 124.76 23.9844C124.314 22.5781 123.904 21.125 123.529 19.625C123.154 18.1016 122.814 16.6016 122.51 15.125C122.205 13.625 121.936 12.2422 121.701 10.9766C121.49 9.71094 121.314 8.62109 121.174 7.70703C121.057 6.76953 120.998 6.125 120.998 5.77344ZM127.256 20.9961C127.256 21.3945 127.35 21.9219 127.537 22.5781C127.725 23.2344 127.959 23.8906 128.24 24.5469C128.545 25.2031 128.873 25.8125 129.225 26.375C129.576 26.9141 129.951 27.2773 130.35 27.4648C130.678 27.6523 131.064 27.6406 131.51 27.4297C131.955 27.1953 132.4 26.8438 132.846 26.375C133.314 25.8828 133.76 25.332 134.182 24.7227C134.604 24.0898 134.979 23.4688 135.307 22.8594C135.658 22.25 135.928 21.6875 136.115 21.1719C136.326 20.6328 136.432 20.2227 136.432 19.9414C136.432 19.332 136.35 18.8398 136.186 18.4648C136.021 18.0664 135.775 17.75 135.447 17.5156C135.143 17.2812 134.768 17.1172 134.322 17.0234C133.9 16.9297 133.432 16.8828 132.916 16.8828C132.33 16.8828 131.709 16.9766 131.053 17.1641C130.396 17.3516 129.787 17.6211 129.225 17.9727C128.686 18.3242 128.217 18.7578 127.818 19.2734C127.443 19.7891 127.256 20.3633 127.256 20.9961ZM125.006 9.04297C125.006 9.46484 124.994 9.99219 124.971 10.625C124.947 11.2344 124.947 11.8672 124.971 12.5234C124.994 13.1797 125.064 13.8359 125.182 14.4922C125.299 15.1484 125.51 15.7109 125.814 16.1797C126.963 15.9688 127.959 15.5703 128.803 14.9844C129.67 14.3984 130.361 13.7188 130.877 12.9453C131.416 12.1484 131.803 11.3047 132.037 10.4141C132.271 9.52344 132.354 8.65625 132.283 7.8125C132.236 6.96875 132.037 6.19531 131.686 5.49219C131.357 4.78906 130.889 4.25 130.279 3.875C129.67 3.47656 128.932 3.27734 128.064 3.27734C127.197 3.27734 126.201 3.55859 125.076 4.12109C125.076 4.30859 125.064 4.63672 125.041 5.10547C125.041 5.57422 125.029 6.06641 125.006 6.58203C125.006 7.09766 125.006 7.58984 125.006 8.05859C125.006 8.52734 125.006 8.85547 125.006 9.04297ZM153.693 14.668C153.74 14.6211 153.775 14.5625 153.799 14.4922C153.846 14.3984 153.869 14.3281 153.869 14.2812C153.869 13.7422 153.541 13.3906 152.885 13.2266C152.252 13.0391 151.455 12.957 150.494 12.9805C149.533 12.9805 148.49 13.0273 147.365 13.1211C146.264 13.2148 145.232 13.2617 144.271 13.2617C143.311 13.2383 142.502 13.1211 141.846 12.9102C141.213 12.6758 140.896 12.2539 140.896 11.6445C140.896 11.2461 140.92 10.9531 140.967 10.7656C141.037 10.5547 141.131 10.4141 141.248 10.3438C141.365 10.25 141.506 10.2031 141.67 10.2031C141.857 10.1797 142.057 10.168 142.268 10.168H143.182C143.463 10.1914 143.92 10.2266 144.553 10.2734C145.186 10.2969 145.9 10.332 146.697 10.3789C147.494 10.4023 148.326 10.4492 149.193 10.5195C150.084 10.5664 150.916 10.6133 151.689 10.6602C152.486 10.707 153.189 10.7539 153.799 10.8008C154.432 10.8477 154.912 10.8828 155.24 10.9062C155.662 11.1641 156.014 11.3984 156.295 11.6094C156.6 11.8203 156.834 12.0312 156.998 12.2422C157.186 12.4531 157.314 12.6875 157.385 12.9453C157.479 13.1797 157.525 13.4844 157.525 13.8594C157.525 14.6562 157.361 15.4414 157.033 16.2148C156.705 16.9648 156.283 17.7266 155.768 18.5C155.275 19.25 154.701 20.0117 154.045 20.7852C153.412 21.5352 152.791 22.2852 152.182 23.0352C151.572 23.7852 150.998 24.5352 150.459 25.2852C149.92 26.0352 149.498 26.7617 149.193 27.4648H158.229C158.908 27.4648 159.342 27.5938 159.529 27.8516C159.717 28.1094 159.811 28.4727 159.811 28.9414C159.811 29.2695 159.775 29.5742 159.705 29.8555C159.635 30.1367 159.389 30.3477 158.967 30.4883C157.842 30.582 156.705 30.7227 155.557 30.9102C154.408 31.0977 153.26 31.2852 152.111 31.4727C150.963 31.6602 149.803 31.8242 148.631 31.9648C147.482 32.1055 146.334 32.1758 145.186 32.1758C145.186 30.4883 145.443 28.8711 145.959 27.3242C146.498 25.7539 147.178 24.2422 147.998 22.7891C148.842 21.3359 149.756 19.9297 150.74 18.5703C151.748 17.2109 152.732 15.9102 153.693 14.668ZM168.775 31.2969C168.4 31.625 168.002 31.4727 167.58 30.8398C167.182 30.207 166.771 29.2578 166.35 27.9922C165.928 26.7031 165.506 25.168 165.084 23.3867C164.686 21.6055 164.299 19.7188 163.924 17.7266C163.549 15.7344 163.186 13.7188 162.834 11.6797C162.506 9.61719 162.213 7.68359 161.955 5.87891C161.955 5.55078 161.943 5.22266 161.92 4.89453C161.92 4.54297 161.955 4.22656 162.025 3.94531C162.119 3.64063 162.271 3.37109 162.482 3.13672C162.717 2.90234 163.068 2.72656 163.537 2.60938C163.584 2.58594 163.678 2.60938 163.818 2.67969C163.982 2.72656 164.146 2.79688 164.311 2.89062C164.475 2.96094 164.615 3.04297 164.732 3.13672C164.873 3.23047 164.967 3.3125 165.014 3.38281C164.709 7.76562 165.213 12.0312 166.525 16.1797C166.596 16.1094 166.783 15.875 167.088 15.4766C167.393 15.0547 167.779 14.5742 168.248 14.0352C168.717 13.4727 169.244 12.875 169.83 12.2422C170.439 11.6094 171.072 11.0234 171.729 10.4844C172.385 9.94531 173.041 9.5 173.697 9.14844C174.354 8.77344 174.986 8.58594 175.596 8.58594C175.947 8.58594 176.287 8.66797 176.615 8.83203C176.967 8.99609 177.143 9.3125 177.143 9.78125C177.143 9.82812 177.131 9.89844 177.107 9.99219C177.084 10.0625 177.072 10.1211 177.072 10.168C176.697 10.4961 176.123 11 175.35 11.6797C174.6 12.3594 173.803 13.1211 172.959 13.9648C172.115 14.8086 171.307 15.6875 170.533 16.6016C169.76 17.5156 169.174 18.3828 168.775 19.2031C168.705 19.3438 168.682 19.4727 168.705 19.5898C168.729 19.6836 168.752 19.8008 168.775 19.9414C169.033 20.0352 169.443 20.1758 170.006 20.3633C170.568 20.5508 171.189 20.7734 171.869 21.0312C172.549 21.2656 173.275 21.5234 174.049 21.8047C174.822 22.0625 175.549 22.3203 176.229 22.5781C176.908 22.8359 177.518 23.0703 178.057 23.2812C178.619 23.4688 179.041 23.6094 179.322 23.7031C179.65 23.8438 179.92 23.9375 180.131 23.9844C180.342 24.0312 180.506 24.1016 180.623 24.1953C180.74 24.2656 180.822 24.3711 180.869 24.5117C180.916 24.6523 180.939 24.8633 180.939 25.1445C180.939 25.8242 180.775 26.2695 180.447 26.4805C180.119 26.6914 179.65 26.7969 179.041 26.7969C177.236 26.6797 175.467 26.3047 173.732 25.6719C171.998 25.0156 170.24 24.2305 168.459 23.3164C168.389 23.7617 168.412 24.2773 168.529 24.8633C168.67 25.4492 168.834 26.0352 169.021 26.6211C169.209 27.207 169.385 27.7812 169.549 28.3438C169.736 28.9062 169.842 29.4102 169.865 29.8555C169.912 30.3008 169.865 30.6523 169.725 30.9102C169.584 31.168 169.268 31.2969 168.775 31.2969Z" fill="#AB7B60"/>
</svg>
